<?xml version="1.0" encoding="UTF-8"?>
<svg width="15px" height="19px" viewBox="0 0 15 19" version="1.1" xmlns="http://www.w3.org/2000/svg" xmlns:xlink="http://www.w3.org/1999/xlink">
    <!-- Generator: sketchtool 51.1 (57501) - http://www.bohemiancoding.com/sketch -->
    <title>3036F922-2774-4E4E-BE17-F5406E55C720@2x</title>
    <desc>Created with sketchtool.</desc>
    <defs></defs>
    <g id="Page-1" stroke="none" stroke-width="1" fill="none" fill-rule="evenodd">
        <g id="FORM_01" transform="translate(-23.000000, -227.000000)">
            <g id="sign_up_list" transform="translate(0.000000, 72.000000)">
                <g id="list-copy-3" transform="translate(0.000000, 131.000000)">
                    <g id="ic_profile_password" transform="translate(15.000000, 18.000000)">
                        <g id="ic_password" transform="translate(9.000000, 6.000000)">
                            <rect id="Rectangle-2072" stroke="#CCCCCC" stroke-width="2" x="0" y="7" width="13" height="11"></rect>
                            <path d="M6.48359711,14.4761905 C7.4788352,14.4761905 8.29312092,13.6619048 8.29312092,12.6666667 C8.29312092,11.6714286 7.4788352,10.8571429 6.48359711,10.8571429 C5.48835901,10.8571429 4.6740733,11.6714286 4.6740733,12.6666667 C4.6740733,13.6619048 5.48835901,14.4761905 6.48359711,14.4761905 L6.48359711,14.4761905 Z M11.0074066,6.33333333 L11.0074066,4.52380952 C11.0074066,2.02666667 8.98073996,0 6.48359711,0 C3.98645425,0 1.95978758,2.02666667 1.95978758,4.52380952 L1.95978758,6.33333333 L1.05502568,6.33333333 C0.0597875831,6.33333333 12.9074066,6.33333333 11.9121685,6.33333333 L11.0074066,6.33333333 Z M3.6788352,4.52380952 C3.6788352,2.97666667 4.93645425,1.71904762 6.48359711,1.71904762 C8.03073996,1.71904762 9.28835901,2.97666667 9.28835901,4.52380952 L9.28835901,6.33333333 L3.6788352,6.33333333 L3.6788352,4.52380952 L3.6788352,4.52380952 Z" id="ic_profile_password" fill="#CCCCCC"></path>
                        </g>
                    </g>
                </g>
            </g>
        </g>
    </g>
</svg>