<?xml version="1.0" encoding="UTF-8"?>
<svg width="17px" height="17px" viewBox="0 0 17 17" version="1.1" xmlns="http://www.w3.org/2000/svg" xmlns:xlink="http://www.w3.org/1999/xlink">
    <!-- Generator: sketchtool 51.1 (57501) - http://www.bohemiancoding.com/sketch -->
    <title>C0764DE3-8E2B-4FD2-9895-1206CC1105A5@2x</title>
    <desc>Created with sketchtool.</desc>
    <defs></defs>
    <g id="Page-1" stroke="none" stroke-width="1" fill="none" fill-rule="evenodd">
        <g id="FORM_02" transform="translate(-337.000000, -97.000000)" fill="#CCCCCC">
            <g id="input_color-copy" transform="translate(0.000000, 72.000000)">
                <g id="ic_remove_normal" transform="translate(330.000000, 18.000000)">
                    <path d="M15.5,7 C10.7995,7 7,10.7995 7,15.5 C7,20.2005 10.7995,24 15.5,24 C20.2005,24 24,20.2005 24,15.5 C24,10.7995 20.2005,7 15.5,7 L15.5,7 Z M19.75,18.5515 L18.5515,19.75 L15.5,16.6985 L12.4485,19.75 L11.25,18.5515 L14.3015,15.5 L11.25,12.4485 L12.4485,11.25 L15.5,14.3015 L18.5515,11.25 L19.75,12.4485 L16.6985,15.5 L19.75,18.5515 L19.75,18.5515 Z"></path>
                </g>
            </g>
        </g>
    </g>
</svg>