<?xml version="1.0" encoding="UTF-8"?>
<svg width="34px" height="26px" viewBox="0 0 34 26" version="1.1" xmlns="http://www.w3.org/2000/svg" xmlns:xlink="http://www.w3.org/1999/xlink">
    <!-- Generator: sketchtool 51.1 (57501) - http://www.bohemiancoding.com/sketch -->
    <title>E7F15900-D7A5-4D5F-A4C0-6F7091816F34@2x</title>
    <desc>Created with sketchtool.</desc>
    <defs></defs>
    <g id="Page-1" stroke="none" stroke-width="1" fill="none" fill-rule="evenodd">
        <g id="Desktop_form_01" transform="translate(-247.000000, -191.000000)">
            <g id="list" transform="translate(216.000000, 152.000000)">
                <g id="ic_profile_firstname" transform="translate(23.625000, 28.350000)">
                    <g id="ic_name" transform="translate(9.450000, 12.600000)">
                        <rect id="Rectangle-2072" stroke="#CCCCCC" stroke-width="3.15" x="0" y="0" width="29.925" height="22.05"></rect>
                        <rect id="Rectangle-1206" fill="#CCCCCC" x="15.75" y="6.3" width="10.9113991" height="1.47"></rect>
                        <polygon id="Rectangle-1206-Copy" fill="#CCCCCC" points="15.75 9.45 26.6613991 9.45 26.6613991 10.92 15.75 10.92"></polygon>
                        <path d="M13.46625,15.855 L3.49125,15.855 L3.49125,15.0674391 C3.49125,13.4923172 6.81625,12.6260001 8.47875,12.6260001 C10.14125,12.6260001 13.46625,13.4923172 13.46625,15.0674391 L13.46625,15.855 L13.46625,15.855 Z" id="Path" fill="#CCCCCC"></path>
                        <path d="M10.9725,8.49710503 C10.9725,9.89587358 9.858625,11.025 8.47875,11.025 C7.098875,11.025 5.985,9.89587358 5.985,8.49710503 C5.985,7.09833648 7.098875,5.96921007 8.47875,5.96921007 C9.858625,5.96921007 10.9725,7.09833648 10.9725,8.49710503 Z" id="Path" fill="#CCCCCC"></path>
                    </g>
                </g>
            </g>
        </g>
    </g>
</svg>