<?xml version="1.0" encoding="UTF-8"?>
<svg width="26px" height="26px" viewBox="0 0 26 26" version="1.1" xmlns="http://www.w3.org/2000/svg" xmlns:xlink="http://www.w3.org/1999/xlink">
    <!-- Generator: sketchtool 51.1 (57501) - http://www.bohemiancoding.com/sketch -->
    <title>44BE0B05-8B1F-4EEF-A127-83C7158ED4BB@2x</title>
    <desc>Created with sketchtool.</desc>
    <defs></defs>
    <g id="Page-1" stroke="none" stroke-width="1" fill="none" fill-rule="evenodd">
        <g id="Desktop_form_02" transform="translate(-739.000000, -297.000000)" fill="#CCCCCC">
            <g id="input_color-copy" transform="translate(215.000000, 256.000000)">
                <g id="ic_remove_normal" transform="translate(514.000000, 31.000000)">
                    <path d="M23.25,10.5 C16.19925,10.5 10.5,16.19925 10.5,23.25 C10.5,30.30075 16.19925,36 23.25,36 C30.30075,36 36,30.30075 36,23.25 C36,16.19925 30.30075,10.5 23.25,10.5 L23.25,10.5 Z M29.625,27.82725 L27.82725,29.625 L23.25,25.04775 L18.67275,29.625 L16.875,27.82725 L21.45225,23.25 L16.875,18.67275 L18.67275,16.875 L23.25,21.45225 L27.82725,16.875 L29.625,18.67275 L25.04775,23.25 L29.625,27.82725 L29.625,27.82725 Z"></path>
                </g>
            </g>
        </g>
    </g>
</svg>