<?xml version="1.0" encoding="UTF-8"?>
<svg width="24px" height="31px" viewBox="0 0 24 31" version="1.1" xmlns="http://www.w3.org/2000/svg" xmlns:xlink="http://www.w3.org/1999/xlink">
    <!-- Generator: sketchtool 51.1 (57501) - http://www.bohemiancoding.com/sketch -->
    <title>DCBCBB9B-E16C-4C95-9F0B-11522D4B883B@2x</title>
    <desc>Created with sketchtool.</desc>
    <defs></defs>
    <g id="Page-1" stroke="none" stroke-width="1" fill="none" fill-rule="evenodd">
        <g id="Desktop_form_01" transform="translate(-252.000000, -395.000000)">
            <g id="list-copy-3" transform="translate(216.000000, 358.000000)">
                <g id="ic_profile_password" transform="translate(23.625000, 28.350000)">
                    <g id="ic_password" transform="translate(14.175000, 9.450000)">
                        <rect id="Rectangle-2072" stroke="#CCCCCC" stroke-width="3.15" x="0" y="11.025" width="20.475" height="17.325"></rect>
                        <path d="M10.2116654,22.8 C11.7791654,22.8 13.0616654,21.5175 13.0616654,19.95 C13.0616654,18.3825 11.7791654,17.1 10.2116654,17.1 C8.64416544,17.1 7.36166544,18.3825 7.36166544,19.95 C7.36166544,21.5175 8.64416544,22.8 10.2116654,22.8 L10.2116654,22.8 Z M17.3366654,9.975 L17.3366654,7.125 C17.3366654,3.192 14.1446654,0 10.2116654,0 C6.27866544,0 3.08666544,3.192 3.08666544,7.125 L3.08666544,9.975 L1.66166544,9.975 C0.0941654434,9.975 20.3291654,9.975 18.7616654,9.975 L17.3366654,9.975 Z M5.79416544,7.125 C5.79416544,4.68825 7.77491544,2.7075 10.2116654,2.7075 C12.6484154,2.7075 14.6291654,4.68825 14.6291654,7.125 L14.6291654,9.975 L5.79416544,9.975 L5.79416544,7.125 L5.79416544,7.125 Z" id="ic_profile_password" fill="#CCCCCC"></path>
                    </g>
                </g>
            </g>
        </g>
    </g>
</svg>